<svg width="230" height="48" viewBox="0 0 230 48" fill="none" xmlns="http://www.w3.org/2000/svg">
<g clip-path="url(#clip0_2004_22194)">
<path d="M42.3604 19.1008L42.3601 19.0986V19.101L42.3604 19.1008Z" fill="white"/>
<path d="M43.2832 19.5295C42.8487 19.6533 42.4525 19.7663 42.3604 19.1008C48.3207 15.0644 52.4088 23.1168 45.9898 26.0046C42.2688 27.6778 37.5205 26.6809 33.7037 25.7682C32.6436 33.6149 28.6605 40.9889 21.689 44.9977C14.631 49.0556 3.84028 50.0291 0 41.3353L0.582712 40.9796C5.675 47.2794 14.8042 47.0126 20.0135 40.9796C22.9762 37.5488 25.8733 29.7512 26.0652 25.2463C26.0673 25.1903 26.0857 25.1359 26.1038 25.0825C26.1475 24.9531 26.1892 24.83 25.9903 24.7058C21.2327 23.4912 9.26488 24.4179 8.89045 31.0384C8.81584 32.3627 9.34029 33.2595 9.87808 34.1791C10.2175 34.7594 10.5621 35.3488 10.765 36.0604C5.73351 34.8389 3.29735 28.9251 7.37399 25.0638C11.7044 20.9638 19.3486 21.3793 25.1311 21.6935C25.5735 21.7175 26.005 21.741 26.4233 21.7618C27.1721 16.0774 29.634 10.7534 34.167 7.15888C29.6574 6.68148 24.8951 6.41469 20.4932 7.76031C17.7645 8.59577 14.9492 10.145 15.4641 13.4657C15.8432 15.9066 19.1944 16.1921 21.1602 15.9159C21.527 15.8645 21.8628 15.7142 22.1925 15.5666C22.5525 15.4054 22.9052 15.2476 23.2827 15.2256C24.413 15.16 22.8194 16.6648 22.5783 16.8661C16.6038 21.8203 6.50578 14.2684 12.8618 7.61756C18.8412 1.35975 32.4834 4.21017 42.6042 6.32483C45.3291 6.89418 47.7988 7.4102 49.7949 7.68074C49.9058 7.69579 50.0167 7.71108 50.1277 7.72637L50.1283 7.72647C51.9496 7.97751 53.7811 8.22997 55.5191 7.4514C58.9545 5.91155 57.1385 0.582895 54.0588 2.01042C53.9716 2.0512 53.8327 2.14883 53.6724 2.26149C53.0968 2.66605 52.2454 3.26445 52.5236 2.12041C52.8091 0.936266 54.4285 0.0423067 55.5776 0.00252319C59.6425 -0.137889 61.0911 4.66422 58.7392 7.62692C56.1934 10.8386 49.7741 9.79375 45.9564 9.17234C45.7489 9.13856 45.549 9.10603 45.3579 9.07551C44.9846 9.01531 44.4328 8.88183 43.8069 8.73047C42.1216 8.32287 39.9001 7.78559 39.1868 8.20027C36.6336 9.6863 34.6842 20.4138 34.167 23.4233C34.573 23.4986 34.9934 23.5819 35.4244 23.6673L35.4247 23.6674C38.5313 24.2829 42.1911 25.0082 45.0209 23.6293C47.6232 22.3609 46.9141 19.6322 43.8789 19.4262C43.6893 19.4138 43.4822 19.4728 43.2832 19.5295Z" fill="white"/>
<path fill-rule="evenodd" clip-rule="evenodd" d="M149.174 34.4106C149.776 32.852 152.525 31.3706 154.128 31.1741L154.131 31.1764C163.543 30.0203 165.221 40.7572 157.742 44.6162C150.028 48.5946 139.603 45.9314 132.1 42.6411C127.094 44.8362 121.225 47.0313 115.737 45.4119C109.543 43.5842 108.845 37.5348 115.501 35.6111C120.626 34.1297 125.36 36.0862 129.884 38.307C134.608 31.424 136.018 23.1822 137.406 15.0707L137.406 15.0694C137.665 13.5535 137.924 12.0422 138.203 10.5451C137.722 10.3683 137.224 10.18 136.714 9.98678L136.711 9.98583L136.709 9.98495L136.708 9.98472C132.605 8.43127 127.668 6.56195 123.509 7.81646C120.97 8.5817 119.73 11.3549 121.915 13.2574C122.082 13.4028 122.481 13.6024 122.916 13.82C124.071 14.3977 125.478 15.1017 123.455 15.2513C117.717 15.6749 115.815 9.20888 121.223 6.69784C125.576 4.67606 130.61 6.03152 135.234 7.27651C136.411 7.59365 137.562 7.90361 138.669 8.14877C140.363 4.74844 142.399 1.68277 146.31 0.657761C151.007 -0.573188 157.77 1.306 156.738 7.34139C156.005 11.6216 149.375 12.9111 145.797 12.1926C144.255 20.3038 142.537 29.206 138.259 36.3693C137.568 37.5254 136.732 38.5202 135.889 39.5247C135.521 39.9617 135.153 40.4007 134.794 40.8555C137.131 42.2386 140.167 43.2589 142.872 43.5491C146.794 43.968 156.927 42.7792 157.714 37.8039C158.526 32.6741 152.371 32.9409 149.425 35.1314C148.872 35.2367 149.041 34.7569 149.174 34.4106ZM151.121 2.18592C148.51 2.32867 147.204 5.59092 146.616 7.74625C146.599 7.80829 146.573 7.89647 146.541 8.0023L146.54 8.00428L146.54 8.0058C146.357 8.61554 146 9.80395 146.258 9.96711C149.174 11.0132 155.39 10.0139 155.167 5.99811C155.057 4.01362 153.157 2.07593 151.121 2.18592ZM117.652 37.055C114.015 37.6284 113.086 42.028 116.882 43.3291C120.752 44.656 125.26 43.2729 128.239 40.6262C125.454 38.3819 121.295 36.4793 117.652 37.055Z" fill="white"/>
<path fill-rule="evenodd" clip-rule="evenodd" d="M225.673 24.322C224.206 24.9913 222.771 27.0015 222.044 28.415C221.789 28.9091 221.601 29.425 221.416 29.9328C220.975 31.1421 220.551 32.3059 219.282 33.0229C220.434 29.4423 219.753 21.9115 214.496 22.7423C212.879 22.9987 211.675 25.0694 210.889 26.4217L210.815 26.5475C209.694 28.4681 208.73 30.5292 207.763 32.5963C206.649 34.9771 205.532 37.3658 204.167 39.5567C203.282 40.9749 201.054 44.4946 199.271 44.5016C196.468 44.5145 197.863 39.53 198.443 37.4593C198.492 37.2842 198.535 37.1299 198.569 37.0012C199.162 34.7724 199.929 32.5979 200.697 30.4233C201.5 28.1499 202.303 25.8763 202.905 23.5403C202.839 22.8824 202.398 22.9921 201.925 23.1098C201.744 23.1549 201.558 23.2011 201.387 23.2057L201.335 23.2068C200.189 23.2323 199.02 23.2582 197.893 23.0138C197.423 23.0977 197.345 23.5967 197.268 24.0865C197.201 24.5117 197.136 24.93 196.816 25.0638C194.827 19.8077 186.826 24.8672 184.067 27.1794C181.231 29.5545 179.849 32.7056 178.51 35.7576C177.243 38.6477 176.014 41.4489 173.627 43.4181C170.798 45.7536 168.977 43.2402 169.728 40.2213L175.293 23.311L174.902 22.7447L169.899 22.8266L165.28 36.243C163.936 42.613 168.993 49.0065 175.048 43.9048L179.026 37.9396C179.527 43.1723 185.656 49.1516 190.147 43.7925L193.067 38.8781C193.196 43.0764 197.357 48.2038 201.607 44.9556C204.755 42.5492 206.907 37.6776 208.888 33.1917C209.851 31.0116 210.774 28.9226 211.751 27.2519C212.14 26.5896 214.759 22.3515 215.498 24.5232C215.998 25.9951 214.872 29.7655 214.307 31.6588C214.282 31.74 214.259 31.8178 214.237 31.8918C214.222 31.9414 214.208 31.9892 214.195 32.0353C213.633 33.9339 212.948 35.7977 212.262 37.6622C211.391 40.0308 210.52 42.4008 209.9 44.8456C209.931 45.6805 210.214 45.6109 210.644 45.5052C210.808 45.4648 210.993 45.4192 211.194 45.4166C212.491 45.4002 213.801 45.3885 215.084 45.543C215.697 44.2128 216.137 42.7767 216.579 41.3328C217.157 39.4462 217.739 37.5463 218.716 35.8522C220.128 33.4017 222.174 32.2076 224.169 31.0439C225.776 30.106 227.35 29.1878 228.531 27.6474C230.548 25.017 228.51 23.0325 225.676 24.3243L225.673 24.322ZM195.81 27.9259C195.438 31.2864 190.757 41.2791 188.27 43.5514C185.579 46.011 183.589 43.507 183.47 40.6168C183.294 36.3811 188.534 25.1083 193.004 24.1815C195.623 23.6386 196.039 25.8501 195.81 27.9259Z" fill="white"/>
<path fill-rule="evenodd" clip-rule="evenodd" d="M102.459 28.415C103.292 26.7955 105.05 24.3851 106.936 23.9967H106.938C109.398 23.4888 110.554 25.3025 109.157 27.3876C108.138 28.9073 106.399 29.9322 104.623 30.9783C102.942 31.9685 101.229 32.9777 100.065 34.4433C98.5039 36.4105 97.7425 38.8892 96.9929 41.3294C96.5458 42.7849 96.1029 44.2268 95.4969 45.5383C94.2145 45.3838 92.904 45.3955 91.6075 45.4119C91.4064 45.4145 91.2209 45.4601 91.0568 45.5005C90.6269 45.6062 90.3439 45.6758 90.3134 44.8409C90.8611 42.2653 91.9003 39.588 92.9437 36.8998C94.2098 33.638 95.4821 30.3601 95.8901 27.2285C96.1148 25.5084 96.0399 22.5106 93.8424 24.7128C91.9022 26.6565 90.4499 30.0569 88.9388 33.5952C87.4243 37.1412 85.8506 40.8259 83.6672 43.3221C78.94 48.7256 73.6769 44.9649 73.1339 38.8734C72.9561 39.1576 72.759 39.4884 72.5444 39.8485L72.5442 39.8487C71.2164 42.0765 69.2196 45.4268 66.9956 45.8378C62.6475 46.6428 60.6559 42.4258 60.0288 38.871C58.0911 43.8159 53.9512 49.0018 48.8192 43.7644C43.652 38.4896 46.0975 31.4058 51.143 27.1793C53.8974 24.8719 61.9009 19.8053 63.8924 25.0638C64.1865 24.9266 64.2434 24.5414 64.3009 24.1528C64.3395 23.892 64.3783 23.6296 64.4892 23.4397C64.5968 23.2525 64.7396 23.0536 64.9689 23.0114C65.178 22.9731 65.8603 23.0341 66.572 23.0978C67.2068 23.1545 67.8649 23.2134 68.2312 23.2057C68.4242 23.2018 68.6366 23.158 68.8451 23.115C69.395 23.0015 69.9172 22.8938 69.9817 23.5403C69.3788 25.8762 68.5761 28.1498 67.7735 30.4232C67.0057 32.5979 66.2379 34.7724 65.6453 37.0012C65.6112 37.1286 65.5685 37.2814 65.5199 37.4547C64.9412 39.5216 63.5426 44.5167 66.3473 44.5016C68.2897 44.4922 70.9669 39.9358 71.8843 38.3281C73.3375 35.789 74.6153 32.8637 75.5982 30.1069C75.697 29.8308 75.8743 29.2171 76.0931 28.46L76.0932 28.4595C76.7031 26.3487 77.6352 23.1228 78.0881 22.9833C78.3503 22.9021 78.9442 22.9794 79.6426 23.0702C80.796 23.2202 82.2342 23.4072 82.9324 22.9787L83.3232 23.545L77.7582 40.687C77.4633 46.5797 80.8332 44.8128 83.274 41.5248C85.2585 38.8523 86.7165 35.7309 88.1639 32.6322C89.1385 30.5457 90.1083 28.4694 91.2308 26.5475L91.3083 26.4144C92.0989 25.058 93.2994 22.9982 94.9119 22.7423C100.168 21.9115 100.849 29.4447 99.6976 33.0228C100.967 32.3059 101.391 31.1421 101.831 29.9328C102.016 29.425 102.204 28.9091 102.459 28.415ZM55.346 43.5514C57.8547 41.2604 62.4813 31.3192 62.8908 27.9305C63.1412 25.8524 62.6755 23.6433 60.0802 24.1815C55.6339 25.1036 50.338 36.3974 50.5509 40.6215C50.696 43.5093 52.6407 46.0227 55.346 43.5514Z" fill="white"/>
<path d="M81.7552 20.0698C85.7897 19.9551 86.129 12.7988 81.3714 13.8823C78.2963 14.582 78.053 20.1751 81.7552 20.0698Z" fill="white"/>
<path d="M173.744 19.899C177.645 19.7188 178.013 12.883 173.583 13.6506C170.053 14.2637 170.077 20.0675 173.744 19.899Z" fill="white"/>
</g>
<defs>
<clipPath id="clip0_2004_22194">
<rect width="230" height="48" fill="white"/>
</clipPath>
</defs>
</svg>
